<svg width="48" height="48" viewBox="0 0 48 48" fill="none" xmlns="http://www.w3.org/2000/svg">
<path d="M23.998 37.45C23.8258 37.45 23.6522 37.4159 23.4773 37.3478C23.3024 37.2796 23.1637 37.1757 23.0611 37.0361L10.425 24.4C10.2917 24.2733 10.225 24.1375 10.225 23.9925C10.225 23.8475 10.2833 23.725 10.4 23.625C10.5167 23.525 10.65 23.475 10.8 23.475C10.95 23.475 11.0843 23.5167 11.2029 23.6L23.475 35.875V10.525C23.475 10.3895 23.5247 10.264 23.624 10.1484C23.7234 10.0328 23.8519 9.97501 24.0097 9.97501C24.1866 9.97501 24.325 10.0273 24.425 10.1319C24.525 10.2365 24.575 10.3758 24.575 10.55V35.875L36.825 23.575C36.9371 23.5083 37.0652 23.475 37.2091 23.475C37.353 23.475 37.4833 23.5224 37.6 23.6171C37.7167 23.7118 37.775 23.8335 37.775 23.9821C37.775 24.1307 37.7152 24.2631 37.5957 24.3794L24.9389 37.0361C24.827 37.1787 24.6905 37.2833 24.5296 37.35C24.3687 37.4167 24.1915 37.45 23.998 37.45Z" fill="#015DFF"/>
</svg>
