<?xml version="1.0" encoding="UTF-8"?><svg id="Calque_2" xmlns="http://www.w3.org/2000/svg" viewBox="0 0 142.19 140.31"><defs><style>.cls-1{fill:#015dff;}</style></defs><g id="Calque_2-2"><path class="cls-1" d="m49.4,117.46c1,0,1.77-.29,2.29-.87.53-.58.99-1.89,1.39-3.95.4-2.05.69-5.14.86-9.25.18-4.11.26-9.7.26-16.77h-14.66c-1.8,11.88-4.74,22.1-8.8,30.64-4.06,8.55-9.52,16.23-16.39,23.05L0,121.52c6.27-6.62,10.99-15,14.17-25.15,3.18-10.15,5.08-23.15,5.68-38.99H6.84V1.73h70.16v55.64h-35.12c0,.7-.05,1.71-.15,3.01-.1,1.3-.18,2.47-.23,3.5-.05,1.03-.08,1.94-.08,2.74h35.57c0,11.88-.06,21.58-.19,29.1-.13,7.52-.5,14.1-1.13,19.74-.63,5.64-1.28,9.86-1.96,12.67-.68,2.81-1.84,5.03-3.5,6.65s-3.28,2.62-4.89,2.97c-1.6.35-3.94.53-6.99.53-6.87,0-14.96-.28-24.29-.83l-1.2-20.9c9.52.6,15.04.9,16.54.9Zm6.17-77.53v-19.33h-25.94v19.33h25.94Zm30.45,64.29V6.17h21.73v98.05h-21.73ZM118.88,0h23.31v110.39c0,4.66-.09,8.33-.26,11.02-.18,2.68-.55,5.2-1.13,7.56-.58,2.36-1.29,4.05-2.14,5.08-.85,1.03-2.28,1.91-4.29,2.63-2.01.73-4.09,1.18-6.24,1.35-2.16.17-5.16.26-9.02.26-2.76,0-10.18-.28-22.26-.83l-1.2-20.9c2.51.1,5.15.21,7.93.34,2.78.13,4.93.25,6.43.38s2.66.19,3.46.19c2.51,0,4.03-.33,4.59-.98.55-.65.83-2.46.83-5.41V0Z"/></g></svg>