<svg width="48" height="48" viewBox="0 0 48 48" fill="none" xmlns="http://www.w3.org/2000/svg">
<path d="M14.4808 37.3923V35.2H28.2653C30.6756 35.2 32.7512 34.4055 34.4923 32.8167C36.2333 31.2279 37.1038 29.2486 37.1038 26.8788C37.1038 24.5449 36.2333 22.5835 34.4923 20.9947C32.7512 19.4059 30.6756 18.6115 28.2653 18.6115H12.8999L18.9653 24.6769L17.4115 26.2057L8.70386 17.4981L17.4115 8.79041L18.9653 10.3442L12.8999 16.4192H28.2153C31.2397 16.4192 33.8426 17.4285 36.024 19.4471C38.2054 21.4657 39.2961 23.9429 39.2961 26.8788C39.2961 29.8506 38.2054 32.3458 36.024 34.3644C33.8426 36.383 31.2383 37.3923 28.2113 37.3923H14.4808Z" fill="#E9E1D3"/>
</svg>
